<?xml version="1.0" standalone="no"?>
<!DOCTYPE svg PUBLIC "-//W3C//DTD SVG 20010904//EN"
 "http://www.w3.org/TR/2001/REC-SVG-20010904/DTD/svg10.dtd">
<svg version="1.0" xmlns="http://www.w3.org/2000/svg"
 width="632.000000pt" height="448.000000pt" viewBox="0 0 632.000000 448.000000"
 preserveAspectRatio="xMidYMid meet">
<metadata>
Created by potrace 1.16, written by Peter Selinger 2001-2019
</metadata>
<g transform="translate(0.000000,448.000000) scale(0.100000,-0.100000)"
fill="#000000" stroke="none">
<path d="M0 2240 l0 -2240 3160 0 3160 0 0 2240 0 2240 -3160 0 -3160 0 0
-2240z m2829 2200 c272 -55 478 -167 676 -365 61 -60 134 -145 163 -187 99
-145 180 -335 211 -493 20 -99 31 -125 54 -129 12 -3 90 -7 172 -10 94 -3 187
-13 250 -26 267 -56 488 -231 600 -474 47 -100 75 -214 82 -326 4 -69 10 -98
21 -108 12 -9 83 -12 278 -12 258 0 263 0 288 -23 36 -31 42 -74 16 -115 -36
-59 -57 -62 -383 -62 -307 0 -341 4 -385 44 -41 36 -45 57 -48 206 -2 162 -15
223 -69 335 -49 101 -112 175 -199 233 -142 95 -241 119 -521 128 -209 6 -232
11 -283 58 -37 33 -51 67 -67 171 -41 256 -162 487 -347 661 -157 148 -322
234 -538 281 -124 26 -371 24 -500 -4 -233 -52 -422 -155 -590 -323 -178 -177
-278 -369 -335 -643 -29 -139 -69 -164 -278 -177 -198 -13 -299 -42 -442 -124
-99 -58 -249 -209 -308 -311 -171 -292 -151 -654 48 -907 111 -142 251 -211
501 -249 83 -12 83 -13 31 -120 l-32 -64 -81 2 c-147 2 -337 81 -474 196 -95
79 -168 175 -230 302 -72 145 -94 246 -95 425 0 163 8 204 67 358 104 269 332
502 597 612 102 41 262 80 366 87 50 3 97 10 106 14 10 5 24 38 34 81 43 177
133 367 240 509 79 105 248 269 340 330 205 136 438 221 665 243 93 8 300 -4
399 -24z m-215 -2386 c9 -8 16 -19 16 -24 0 -4 -21 -68 -46 -140 -34 -96 -53
-136 -71 -147 -17 -11 -60 -17 -158 -21 -114 -4 -138 -2 -160 12 -14 9 -25 24
-25 33 0 19 67 216 86 255 8 15 22 32 31 37 10 6 84 11 165 11 120 0 149 -3
162 -16z m3264 -231 c4 -65 -16 -105 -62 -127 -30 -14 -107 -16 -731 -16
l-697 0 -34 34 c-21 21 -34 44 -34 59 0 29 43 85 74 97 12 5 350 8 751 7 l730
-2 3 -52z m432 5 c0 -96 -50 -145 -137 -135 -60 6 -73 20 -73 77 0 38 6 55 26
79 25 30 29 31 105 31 l79 0 0 -52z m-1337 -418 c47 -37 44 -95 -10 -144 l-28
-26 -341 0 c-325 0 -342 1 -367 20 -51 40 -42 104 22 147 34 23 37 23 366 23
316 0 334 -1 358 -20z m457 1 c25 -48 3 -134 -41 -156 -15 -8 -51 -15 -79 -15
-66 0 -90 22 -90 86 0 37 5 51 29 75 27 27 35 29 100 29 59 0 72 -3 81 -19z
m-802 -441 c44 -41 37 -109 -16 -150 -23 -19 -41 -20 -264 -20 -145 0 -247 4
-259 10 -20 11 -49 60 -49 84 0 20 48 76 74 86 12 5 127 9 257 9 223 1 236 0
257 -19z"/>
</g>
</svg>
